<mxfile host="app.diagrams.net" agent="Mozilla/5.0 (Macintosh; Intel Mac OS X 10_15_7) AppleWebKit/537.36 (KHTML, like Gecko) Chrome/134.0.0.0 Safari/537.36" version="26.1.1">
  <diagram name="Page-1" id="xusKoe4gPoToBGkfESRU">
    <mxGraphModel grid="1" page="1" gridSize="10" guides="1" tooltips="1" connect="1" arrows="1" fold="1" pageScale="1" pageWidth="827" pageHeight="1169" math="0" shadow="0">
      <root>
        <mxCell id="0" />
        <mxCell id="1" parent="0" />
        <mxCell id="96Y2B3fEYa-XEJg0q8iY-3" value="" style="ellipse;whiteSpace=wrap;html=1;aspect=fixed;fillColor=#dae8fc;strokeColor=#6c8ebf;" vertex="1" parent="1">
          <mxGeometry x="1250" y="1530" width="80" height="80" as="geometry" />
        </mxCell>
        <mxCell id="96Y2B3fEYa-XEJg0q8iY-4" value="Create Acccount" style="text;strokeColor=none;align=center;fillColor=none;html=1;verticalAlign=middle;whiteSpace=wrap;rounded=0;" vertex="1" parent="1">
          <mxGeometry x="1260" y="1550" width="60" height="30" as="geometry" />
        </mxCell>
        <mxCell id="96Y2B3fEYa-XEJg0q8iY-5" value="0.1.1" style="text;strokeColor=none;align=center;fillColor=none;html=1;verticalAlign=middle;whiteSpace=wrap;rounded=0;" vertex="1" parent="1">
          <mxGeometry x="1260" y="1570" width="60" height="30" as="geometry" />
        </mxCell>
        <mxCell id="96Y2B3fEYa-XEJg0q8iY-6" value="" style="ellipse;whiteSpace=wrap;html=1;aspect=fixed;fillColor=#dae8fc;strokeColor=#6c8ebf;" vertex="1" parent="1">
          <mxGeometry x="1081" y="1530" width="80" height="80" as="geometry" />
        </mxCell>
        <mxCell id="96Y2B3fEYa-XEJg0q8iY-7" value="Edit Details" style="text;strokeColor=none;align=center;fillColor=none;html=1;verticalAlign=middle;whiteSpace=wrap;rounded=0;" vertex="1" parent="1">
          <mxGeometry x="1091" y="1550" width="60" height="30" as="geometry" />
        </mxCell>
        <mxCell id="96Y2B3fEYa-XEJg0q8iY-8" value="0.1.2" style="text;strokeColor=none;align=center;fillColor=none;html=1;verticalAlign=middle;whiteSpace=wrap;rounded=0;" vertex="1" parent="1">
          <mxGeometry x="1091" y="1570" width="60" height="30" as="geometry" />
        </mxCell>
        <mxCell id="96Y2B3fEYa-XEJg0q8iY-9" value="Registration" style="curved=1;startArrow=none;endArrow=block;rounded=0;entryX=0.386;entryY=-0.014;entryDx=0;entryDy=0;entryPerimeter=0;" edge="1" parent="1" target="96Y2B3fEYa-XEJg0q8iY-3">
          <mxGeometry x="0.002" relative="1" as="geometry">
            <Array as="points" />
            <mxPoint x="1280" y="1410" as="sourcePoint" />
            <mxPoint x="1280" y="1520" as="targetPoint" />
            <mxPoint as="offset" />
          </mxGeometry>
        </mxCell>
        <mxCell id="96Y2B3fEYa-XEJg0q8iY-11" value="Change Info" style="curved=1;startArrow=none;endArrow=block;rounded=0;entryX=0.5;entryY=0;entryDx=0;entryDy=0;" edge="1" parent="1" target="96Y2B3fEYa-XEJg0q8iY-6">
          <mxGeometry x="-0.0053" relative="1" as="geometry">
            <Array as="points" />
            <mxPoint x="1120" y="1410" as="sourcePoint" />
            <mxPoint x="1220" y="1520" as="targetPoint" />
            <mxPoint as="offset" />
          </mxGeometry>
        </mxCell>
        <mxCell id="96Y2B3fEYa-XEJg0q8iY-12" value="" style="line;strokeWidth=2;html=1;" vertex="1" parent="1">
          <mxGeometry x="1130" y="1710" width="160" height="10" as="geometry" />
        </mxCell>
        <mxCell id="96Y2B3fEYa-XEJg0q8iY-13" value="" style="line;strokeWidth=2;html=1;" vertex="1" parent="1">
          <mxGeometry x="1130" y="1750" width="160" height="10" as="geometry" />
        </mxCell>
        <mxCell id="96Y2B3fEYa-XEJg0q8iY-14" value="User Database" style="text;strokeColor=none;align=center;fillColor=none;html=1;verticalAlign=middle;whiteSpace=wrap;rounded=0;" vertex="1" parent="1">
          <mxGeometry x="1149" y="1720" width="120" height="30" as="geometry" />
        </mxCell>
        <mxCell id="96Y2B3fEYa-XEJg0q8iY-15" value="Store Data" style="curved=1;startArrow=none;endArrow=block;rounded=0;" edge="1" parent="1" target="96Y2B3fEYa-XEJg0q8iY-12">
          <mxGeometry x="0.002" relative="1" as="geometry">
            <Array as="points" />
            <mxPoint x="1270" y="1610" as="sourcePoint" />
            <mxPoint x="1320" y="1700" as="targetPoint" />
            <mxPoint as="offset" />
          </mxGeometry>
        </mxCell>
        <mxCell id="96Y2B3fEYa-XEJg0q8iY-16" value="Manipulate Data" style="curved=1;startArrow=none;endArrow=block;rounded=0;" edge="1" parent="1">
          <mxGeometry x="0.002" relative="1" as="geometry">
            <Array as="points" />
            <mxPoint x="1130" y="1610" as="sourcePoint" />
            <mxPoint x="1180" y="1710" as="targetPoint" />
            <mxPoint as="offset" />
          </mxGeometry>
        </mxCell>
      </root>
    </mxGraphModel>
  </diagram>
</mxfile>
